<svg width="16" height="16" viewBox="0 0 16 16" fill="none" xmlns="http://www.w3.org/2000/svg">
   <path d="M9.88663 7.52582L7.05996 4.69915C6.99799 4.63667 6.92425 4.58707 6.84301 4.55322C6.76177 4.51938 6.67464 4.50195 6.58663 4.50195C6.49862 4.50195 6.41148 4.51938 6.33024 4.55322C6.249 4.58707 6.17527 4.63667 6.1133 4.69915C5.98913 4.82406 5.91943 4.99303 5.91943 5.16915C5.91943 5.34528 5.98913 5.51424 6.1133 5.63915L8.47329 7.99915L6.1133 10.3592C5.98913 10.4841 5.91943 10.653 5.91943 10.8292C5.91943 11.0053 5.98913 11.1742 6.1133 11.2992C6.17559 11.3609 6.24947 11.4098 6.33069 11.443C6.41192 11.4762 6.49889 11.493 6.58663 11.4925C6.67437 11.493 6.76134 11.4762 6.84257 11.443C6.92379 11.4098 6.99767 11.3609 7.05996 11.2992L9.88663 8.47249C9.94911 8.41051 9.99871 8.33678 10.0326 8.25554C10.0664 8.1743 10.0838 8.08716 10.0838 7.99915C10.0838 7.91114 10.0664 7.82401 10.0326 7.74277C9.99871 7.66153 9.94911 7.58779 9.88663 7.52582Z" fill="white"/>
</svg>
